<svg version="1.1" class="highcharts-root" style="font-family:Arial;font-size:12;" xmlns="http://www.w3.org/2000/svg" width="300" height="400" viewBox="0 0 300 400"><desc>Created with Highcharts 6.1.2</desc><defs><clipPath id="highcharts-0rlzg3o-1"><rect x="0" y="0" width="241" height="309" fill="none"></rect></clipPath></defs><rect fill="transparent" class="highcharts-background" x="0" y="0" width="300" height="400" rx="0" ry="0"></rect><rect fill="none" class="highcharts-plot-background" x="49" y="56" width="241" height="309"></rect><g class="highcharts-grid highcharts-xaxis-grid " data-z-index="1"><path fill="none" data-z-index="1" class="highcharts-grid-line" d="M 96.5 56 L 96.5 365" opacity="1"></path><path fill="none" data-z-index="1" class="highcharts-grid-line" d="M 144.5 56 L 144.5 365" opacity="1"></path><path fill="none" data-z-index="1" class="highcharts-grid-line" d="M 193.5 56 L 193.5 365" opacity="1"></path><path fill="none" data-z-index="1" class="highcharts-grid-line" d="M 241.5 56 L 241.5 365" opacity="1"></path><path fill="none" data-z-index="1" class="highcharts-grid-line" d="M 289.5 56 L 289.5 365" opacity="1"></path><path fill="none" data-z-index="1" class="highcharts-grid-line" d="M 48.5 56 L 48.5 365" opacity="1"></path></g><g class="highcharts-grid highcharts-yaxis-grid " data-z-index="1"><path fill="none" stroke="#ccc" stroke-width="1" data-z-index="1" class="highcharts-grid-line" d="M 49 365.5 L 290 365.5" opacity="1"></path><path fill="none" stroke="#ccc" stroke-width="1" data-z-index="1" class="highcharts-grid-line" d="M 49 310.5 L 290 310.5" opacity="1"></path><path fill="none" stroke="#ccc" stroke-width="1" data-z-index="1" class="highcharts-grid-line" d="M 49 255.5 L 290 255.5" opacity="1"></path><path fill="none" stroke="#ccc" stroke-width="1" data-z-index="1" class="highcharts-grid-line" d="M 49 199.5 L 290 199.5" opacity="1"></path><path fill="none" stroke="#ccc" stroke-width="1" data-z-index="1" class="highcharts-grid-line" d="M 49 144.5 L 290 144.5" opacity="1"></path><path fill="none" stroke="#ccc" stroke-width="1" data-z-index="1" class="highcharts-grid-line" d="M 49 89.5 L 290 89.5" opacity="1"></path></g><rect fill="none" class="highcharts-plot-border" data-z-index="1" x="49" y="56" width="241" height="309"></rect><g class="highcharts-axis highcharts-xaxis " data-z-index="2"><path fill="none" class="highcharts-tick" stroke="#ccd6eb" stroke-width="1" d="M 96.5 365 L 96.5 375" opacity="1"></path><path fill="none" class="highcharts-tick" stroke="#ccd6eb" stroke-width="1" d="M 144.5 365 L 144.5 375" opacity="1"></path><path fill="none" class="highcharts-tick" stroke="#ccd6eb" stroke-width="1" d="M 193.5 365 L 193.5 375" opacity="1"></path><path fill="none" class="highcharts-tick" stroke="#ccd6eb" stroke-width="1" d="M 241.5 365 L 241.5 375" opacity="1"></path><path fill="none" class="highcharts-tick" stroke="#ccd6eb" stroke-width="1" d="M 290.5 365 L 290.5 375" opacity="1"></path><path fill="none" class="highcharts-tick" stroke="#ccd6eb" stroke-width="1" d="M 48.5 365 L 48.5 375" opacity="1"></path><path fill="none" class="highcharts-axis-line" stroke="#ccc" stroke-width="1" data-z-index="7" d="M 49 365.5 L 290 365.5"></path></g><g class="highcharts-axis highcharts-yaxis " data-z-index="2"><path fill="none" class="highcharts-axis-line" data-z-index="7" d="M 49 56 L 49 365"></path></g><g class="highcharts-series-group" data-z-index="3"><g data-z-index="0.1" class="highcharts-series highcharts-series-0 highcharts-column-series  highcharts-tracker" transform="translate(49,56) scale(1 1)" clip-path="url(#highcharts-0rlzg3o-1)"><rect x="12.5" y="143.5" width="24" height="166" fill="#ff8282" stroke="#ffffff" stroke-width="1" class="highcharts-point"></rect><rect x="60.5" y="75.5" width="24" height="234" fill="#ff8282" stroke="#ffffff" stroke-width="1" class="highcharts-point"></rect><rect x="108.5" y="61.5" width="24" height="248" fill="#ff8282" stroke="#ffffff" stroke-width="1" class="highcharts-point "></rect><rect x="156.5" y="134.5" width="24" height="175" fill="#ff8282" stroke="#ffffff" stroke-width="1" class="highcharts-point"></rect><rect x="204.5" y="165.5" width="24" height="144" fill="#ff8282" stroke="#ffffff" stroke-width="1" class="highcharts-point"></rect></g><g data-z-index="0.1" class="highcharts-markers highcharts-series-0 highcharts-column-series " transform="translate(49,56) scale(1 1)" clip-path="none"></g></g><text x="150" text-anchor="middle" class="highcharts-title" data-z-index="4" style="color:#000;font-size:14;font-weight:normal;font-style:normal;fill:#000;" y="19"><tspan>Number of Cases Registered during</tspan><tspan dy="15" x="150">last five years</tspan></text><text x="150" text-anchor="middle" class="highcharts-subtitle" data-z-index="4" style="color:#666666;fill:#666666;" y="55"></text><g data-z-index="6" class="highcharts-data-labels highcharts-series-0 highcharts-column-series  highcharts-tracker" transform="translate(49,56) scale(1 1)" opacity="1" visibility="visible"><g class="highcharts-label highcharts-data-label highcharts-data-label-color-undefined " data-z-index="1" transform="translate(2,121)"><text x="5" data-z-index="1" style="font-size:11px;font-weight:bold;color:#000000;fill:#000000;" y="16"><tspan x="5" y="16" class="highcharts-text-outline" fill="#FFFFFF" stroke="#FFFFFF" stroke-width="2px" stroke-linejoin="round" style="">75 064</tspan><tspan x="5" y="16">75 064</tspan></text></g><g class="highcharts-label highcharts-data-label highcharts-data-label-color-undefined " data-z-index="1" transform="translate(48,53)"><text x="5" data-z-index="1" style="font-size:11px;font-weight:bold;color:#000000;fill:#000000;" y="16"><tspan x="5" y="16" class="highcharts-text-outline" fill="#FFFFFF" stroke="#FFFFFF" stroke-width="2px" stroke-linejoin="round" style="">106 022</tspan><tspan x="5" y="16">106 022</tspan></text></g><g class="highcharts-label highcharts-data-label highcharts-data-label-color-undefined " data-z-index="1" transform="translate(96,39)"><text x="5" data-z-index="1" style="font-size:11px;font-weight:bold;color:#000000;fill:#000000;" y="16"><tspan x="5" y="16" class="highcharts-text-outline" fill="#FFFFFF" stroke="#FFFFFF" stroke-width="2px" stroke-linejoin="round">112 339</tspan><tspan x="5" y="16">112 339</tspan></text></g><g class="highcharts-label highcharts-data-label highcharts-data-label-color-undefined " data-z-index="1" transform="translate(146,112)"><text x="5" data-z-index="1" style="font-size:11px;font-weight:bold;color:#000000;fill:#000000;" y="16"><tspan x="5" y="16" class="highcharts-text-outline" fill="#FFFFFF" stroke="#FFFFFF" stroke-width="2px" stroke-linejoin="round">79 364</tspan><tspan x="5" y="16">79 364</tspan></text></g><g class="highcharts-label highcharts-data-label highcharts-data-label-color-undefined " data-z-index="1" transform="translate(194,143)"><text x="5" data-z-index="1" style="font-size:11px;font-weight:bold;color:#000000;fill:#000000;" y="16"><tspan x="5" y="16" class="highcharts-text-outline" fill="#FFFFFF" stroke="#FFFFFF" stroke-width="2px" stroke-linejoin="round">65 018</tspan><tspan x="5" y="16">65 018</tspan></text></g></g><g class="highcharts-axis-labels highcharts-xaxis-labels " data-z-index="7"><text x="73.1" style="color:#000;cursor:default;font-size:11px;font-weight:normal;font-style:normal;fill:#000;" text-anchor="middle" transform="translate(0,0)" y="384" opacity="1">2020</text><text x="121.30000000000001" style="color:#000;cursor:default;font-size:11px;font-weight:normal;font-style:normal;fill:#000;" text-anchor="middle" transform="translate(0,0)" y="384" opacity="1">2021</text><text x="169.5" style="color:#000;cursor:default;font-size:11px;font-weight:normal;font-style:normal;fill:#000;" text-anchor="middle" transform="translate(0,0)" y="384" opacity="1">2022</text><text x="217.70000000000002" style="color:#000;cursor:default;font-size:11px;font-weight:normal;font-style:normal;fill:#000;" text-anchor="middle" transform="translate(0,0)" y="384" opacity="1">2023</text><text x="265.9" style="color:#000;cursor:default;font-size:11px;font-weight:normal;font-style:normal;fill:#000;" text-anchor="middle" transform="translate(0,0)" y="384" opacity="1">2024</text></g><g class="highcharts-axis-labels highcharts-yaxis-labels " data-z-index="7"><text x="34" style="color:#000;cursor:default;font-size:11px;font-weight:normal;font-style:normal;fill:#000;" text-anchor="end" transform="translate(0,0)" y="370" opacity="1">0</text><text x="34" style="color:#000;cursor:default;font-size:11px;font-weight:normal;font-style:normal;fill:#000;" text-anchor="end" transform="translate(0,0)" y="315" opacity="1">25k</text><text x="34" style="color:#000;cursor:default;font-size:11px;font-weight:normal;font-style:normal;fill:#000;" text-anchor="end" transform="translate(0,0)" y="259" opacity="1">50k</text><text x="34" style="color:#000;cursor:default;font-size:11px;font-weight:normal;font-style:normal;fill:#000;" text-anchor="end" transform="translate(0,0)" y="204" opacity="1">75k</text><text x="34" style="color:#000;cursor:default;font-size:11px;font-weight:normal;font-style:normal;fill:#000;" text-anchor="end" transform="translate(0,0)" y="149" opacity="1">100k</text><text x="34" style="color:#000;cursor:default;font-size:11px;font-weight:normal;font-style:normal;fill:#000;" text-anchor="end" transform="translate(0,0)" y="94" opacity="1">125k</text></g><g class="highcharts-label highcharts-tooltip highcharts-color-undefined" style="pointer-events:none;white-space:nowrap;" data-z-index="8" transform="translate(249,-9999)" opacity="0" visibility="visible"><path fill="none" class="highcharts-label-box highcharts-tooltip-box" d="M 3.5 0.5 L 117.5 0.5 C 120.5 0.5 120.5 0.5 120.5 3.5 L 120.5 39.5 C 120.5 42.5 120.5 42.5 117.5 42.5 L 65.5 42.5 59.5 48.5 53.5 42.5 3.5 42.5 C 0.5 42.5 0.5 42.5 0.5 39.5 L 0.5 3.5 C 0.5 0.5 0.5 0.5 3.5 0.5" isShadow="true" stroke="#000000" stroke-opacity="0.049999999999999996" stroke-width="5" transform="translate(1, 1)"></path><path fill="none" class="highcharts-label-box highcharts-tooltip-box" d="M 3.5 0.5 L 117.5 0.5 C 120.5 0.5 120.5 0.5 120.5 3.5 L 120.5 39.5 C 120.5 42.5 120.5 42.5 117.5 42.5 L 65.5 42.5 59.5 48.5 53.5 42.5 3.5 42.5 C 0.5 42.5 0.5 42.5 0.5 39.5 L 0.5 3.5 C 0.5 0.5 0.5 0.5 3.5 0.5" isShadow="true" stroke="#000000" stroke-opacity="0.09999999999999999" stroke-width="3" transform="translate(1, 1)"></path><path fill="none" class="highcharts-label-box highcharts-tooltip-box" d="M 3.5 0.5 L 117.5 0.5 C 120.5 0.5 120.5 0.5 120.5 3.5 L 120.5 39.5 C 120.5 42.5 120.5 42.5 117.5 42.5 L 65.5 42.5 59.5 48.5 53.5 42.5 3.5 42.5 C 0.5 42.5 0.5 42.5 0.5 39.5 L 0.5 3.5 C 0.5 0.5 0.5 0.5 3.5 0.5" isShadow="true" stroke="#000000" stroke-opacity="0.15" stroke-width="1" transform="translate(1, 1)"></path><path fill="rgba(247,247,247,0.85)" class="highcharts-label-box highcharts-tooltip-box" d="M 3.5 0.5 L 117.5 0.5 C 120.5 0.5 120.5 0.5 120.5 3.5 L 120.5 39.5 C 120.5 42.5 120.5 42.5 117.5 42.5 L 65.5 42.5 59.5 48.5 53.5 42.5 3.5 42.5 C 0.5 42.5 0.5 42.5 0.5 39.5 L 0.5 3.5 C 0.5 0.5 0.5 0.5 3.5 0.5" stroke="#ff8282" stroke-width="1"></path><text x="8" data-z-index="1" style="font-size:12px;color:#333333;cursor:default;fill:#333333;" y="20"><tspan style="font-size: 10px">2022</tspan><tspan style="fill:#ff8282" x="8" dy="15">â—</tspan><tspan dx="0"> Series 1: </tspan><tspan style="font-weight:bold" dx="0">112 339</tspan></text></g></svg>