<svg version="1.1" class="highcharts-root" style="font-family:Arial;font-size:12;" xmlns="http://www.w3.org/2000/svg" width="578" height="400" viewBox="0 0 578 400"><desc>Created with Highcharts 6.1.2</desc><defs><clipPath id="highcharts-0rlzg3o-9_clone"><rect x="0" y="0" width="558" height="344" fill="none"></rect></clipPath></defs><rect fill="transparent" class="highcharts-background" x="0" y="0" width="578" height="400" rx="0" ry="0"></rect><rect fill="none" class="highcharts-plot-background" x="10" y="41" width="558" height="344"></rect><rect fill="none" class="highcharts-plot-border" data-z-index="1" x="10" y="41" width="558" height="344"></rect><g class="highcharts-series-group" data-z-index="3"><g data-z-index="0.1" class="highcharts-series highcharts-series-0 highcharts-pie-series highcharts-tracker" transform="translate(10,41) scale(1 1)"><path fill="#2f7ed8" d="M 278.9670049410014 10.000003360104728 A 162 162 0 0 1 410.09107732006123 76.82054083434952 L 279 172 A 0 0 0 0 0 279 172 Z" transform="translate(0,0)" stroke="#ffffff" stroke-width="1" stroke-linejoin="round" class="highcharts-point highcharts-color-0"></path><path fill="#0d233a" d="M 410.18619121783047 76.95167947954668 A 162 162 0 0 1 440.9934390442866 170.54201968292028 L 279 172 A 0 0 0 0 0 279 172 Z" transform="translate(0,0)" stroke="#ffffff" stroke-width="1" stroke-linejoin="round" class="highcharts-point highcharts-color-1"></path><path fill="#8bbc21" d="M 440.99481602764797 170.70401382395576 A 162 162 0 0 1 413.3413932073771 262.5339166892767 L 279 172 A 0 0 0 0 0 279 172 Z" transform="translate(0,0)" stroke="#ffffff" stroke-width="1" stroke-linejoin="round" class="highcharts-point highcharts-color-2"></path><path fill="#910000" d="M 413.2507921350858 262.6682127931392 A 162 162 0 0 1 343.24714700300376 320.71551399223426 L 279 172 A 0 0 0 0 0 279 172 Z" transform="translate(0,0)" stroke="#ffffff" stroke-width="1" stroke-linejoin="round" class="highcharts-point highcharts-color-3"></path><path fill="#1aadce" d="M 343.09839939022663 320.7796867707786 A 162 162 0 1 1 278.7749852500324 10.000156270562115 L 279 172 A 0 0 0 1 0 279 172 Z" transform="translate(0,0)" stroke="#ffffff" stroke-width="1" stroke-linejoin="round" class="highcharts-point highcharts-color-4"></path></g><g data-z-index="0.1" class="highcharts-markers highcharts-series-0 highcharts-pie-series " transform="translate(10,41) scale(1 1)"></g></g><text x="289" text-anchor="middle" class="highcharts-title" data-z-index="4" style="color:#000;font-size:14;font-weight:normal;font-style:normal;fill:#000;" y="19"><tspan>State/UT-wise cases recommendations of monetary relief during 2024</tspan></text><text x="289" text-anchor="middle" class="highcharts-subtitle" data-z-index="4" style="color:#666666;fill:#666666;" y="40"></text><g data-z-index="6" class="highcharts-data-labels highcharts-series-0 highcharts-pie-series highcharts-tracker" transform="translate(10,41) scale(1 1)" opacity="1"><g class="highcharts-label highcharts-data-label highcharts-data-label-color-0 " data-z-index="1" transform="translate(318,44)"><text x="5" data-z-index="1" style="font-size:11px;font-weight:bold;color:white;fill:white;" y="16"><tspan x="5" y="16" class="highcharts-text-outline" fill="#000000" stroke="#000000" stroke-width="2px" stroke-linejoin="round" style="">15.0%</tspan><tspan x="5" y="16">15.0%</tspan></text></g><g class="highcharts-label highcharts-data-label highcharts-data-label-color-1 " data-z-index="1" transform="translate(387,121)"><text x="5" data-z-index="1" style="font-size:11px;font-weight:bold;color:white;fill:white;" y="16"><tspan x="5" y="16" class="highcharts-text-outline" fill="#000000" stroke="#000000" stroke-width="2px" stroke-linejoin="round" style="">9.8%</tspan><tspan x="5" y="16">9.8%</tspan></text></g><g class="highcharts-label highcharts-data-label highcharts-data-label-color-2 " data-z-index="1" transform="translate(388,200)"><text x="5" data-z-index="1" style="font-size:11px;font-weight:bold;color:white;fill:white;" y="16"><tspan x="5" y="16" class="highcharts-text-outline" fill="#000000" stroke="#000000" stroke-width="2px" stroke-linejoin="round">9.6%</tspan><tspan x="5" y="16">9.6%</tspan></text></g><g class="highcharts-label highcharts-data-label highcharts-data-label-color-3 " data-z-index="1" transform="translate(346,264)"><text x="5" data-z-index="1" style="font-size:11px;font-weight:bold;color:white;fill:white;" y="16"><tspan x="5" y="16" class="highcharts-text-outline" fill="#000000" stroke="#000000" stroke-width="2px" stroke-linejoin="round">9.1%</tspan><tspan x="5" y="16">9.1%</tspan></text></g><g class="highcharts-label highcharts-data-label highcharts-data-label-color-4 " data-z-index="1" transform="translate(129,189)"><text x="5" data-z-index="1" style="font-size:11px;font-weight:bold;color:white;fill:white;" y="16"><tspan x="5" y="16" class="highcharts-text-outline" fill="#000000" stroke="#000000" stroke-width="2px" stroke-linejoin="round">56.5%</tspan><tspan x="5" y="16">56.5%</tspan></text></g></g></svg>