<svg version="1.1" class="highcharts-root" style="font-family:Arial;font-size:12;" xmlns="http://www.w3.org/2000/svg" width="300" height="400" viewBox="0 0 300 400"><desc>Created with Highcharts 6.1.2</desc><defs><clipPath id="highcharts-0rlzg3o-3"><rect x="0" y="0" width="280" height="329" fill="none"></rect></clipPath></defs><rect fill="transparent" class="highcharts-background" x="0" y="0" width="300" height="400" rx="0" ry="0"></rect><rect fill="none" class="highcharts-plot-background" x="10" y="56" width="280" height="329"></rect><rect fill="none" class="highcharts-plot-border" data-z-index="1" x="10" y="56" width="280" height="329"></rect><g class="highcharts-series-group" data-z-index="3"><g data-z-index="0.1" class="highcharts-series highcharts-series-0 highcharts-pie-series  highcharts-tracker" transform="translate(10,56) scale(1 1)"><path fill="#ff8040" d="M 140.47443901293624 39.000002603044095 A 125.5 125.5 0 0 1 228.83258711435565 253.6493356884098 L 140.5 164.5 A 0 0 0 0 0 140.5 164.5 Z" transform="translate(0,0)" stroke="#ffffff" stroke-width="1" stroke-linejoin="round" class="highcharts-point highcharts-color-0"></path><path fill="#0080c0" d="M 228.74339362723555 253.7376236861379 A 125.5 125.5 0 0 1 204.2469785382006 272.60445285579215 L 140.5 164.5 A 0 0 0 0 0 140.5 164.5 Z" transform="translate(0,0)" stroke="#ffffff" stroke-width="1" stroke-linejoin="round" class="highcharts-point highcharts-color-1"></path><path fill="#a25151" d="M 204.13884222987562 272.668145771484 A 125.5 125.5 0 0 1 167.74037785997308 287.00800714257775 L 140.5 164.5 A 0 0 0 0 0 140.5 164.5 Z" transform="translate(0,0)" stroke="#ffffff" stroke-width="1" stroke-linejoin="round" class="highcharts-point highcharts-color-2"></path><path fill="#9d9d00" d="M 167.61785625306072 287.03518626189924 A 125.5 125.5 0 0 1 109.91265342412326 286.2155052959449 L 140.5 164.5 A 0 0 0 0 0 140.5 164.5 Z" transform="translate(0,0)" stroke="#ffffff" stroke-width="1" stroke-linejoin="round" class="highcharts-point highcharts-color-3"></path><path fill="#6363b1" d="M 109.79095323278526 286.1848570967194 A 125.5 125.5 0 0 1 58.011384824228045 259.08265362307935 L 140.5 164.5 A 0 0 0 0 0 140.5 164.5 Z" transform="translate(0,0)" stroke="#ffffff" stroke-width="1" stroke-linejoin="round" class="highcharts-point highcharts-color-4"></path><path fill="#6698f4" d="M 57.9168434306729 259.00011773032884 A 125.5 125.5 0 0 1 140.325683017772 39.00012106145398 L 140.5 164.5 A 0 0 0 0 0 140.5 164.5 Z" transform="translate(0,0)" stroke="#ffffff" stroke-width="1" stroke-linejoin="round" class="highcharts-point highcharts-color-5"></path></g><g data-z-index="0.1" class="highcharts-markers highcharts-series-0 highcharts-pie-series " transform="translate(10,56) scale(1 1)"></g></g><text x="150" text-anchor="middle" class="highcharts-title" data-z-index="4" style="color:#000;font-size:14;font-weight:normal;font-style:normal;fill:#000;" y="19"><tspan>State/UT-wise number of cases</tspan><tspan dy="15" x="150">registered during 2024</tspan></text><text x="150" text-anchor="middle" class="highcharts-subtitle" data-z-index="4" style="color:#666666;fill:#666666;" y="55"></text><g data-z-index="6" class="highcharts-data-labels highcharts-series-0 highcharts-pie-series  highcharts-tracker" transform="translate(10,56) scale(1 1)" opacity="1" visibility="visible"><g class="highcharts-label highcharts-data-label highcharts-data-label-color-0 " data-z-index="1" transform="translate(208,118)"><text x="5" data-z-index="1" style="font-size:11px;font-weight:bold;color:white;fill:white;" y="16"><tspan x="5" y="16" class="highcharts-text-outline" fill="#000000" stroke="#000000" stroke-width="2px" stroke-linejoin="round" style="">37.6%</tspan><tspan x="5" y="16">37.6%</tspan></text></g><g class="highcharts-label highcharts-data-label highcharts-data-label-color-1 " data-z-index="1" transform="translate(181,230)"><text x="5" data-z-index="1" style="font-size:11px;font-weight:bold;color:white;fill:white;" y="16"><tspan x="5" y="16" class="highcharts-text-outline" fill="#000000" stroke="#000000" stroke-width="2px" stroke-linejoin="round" style="">4.0%</tspan><tspan x="5" y="16">4.0%</tspan></text></g><g class="highcharts-label highcharts-data-label highcharts-data-label-color-2 " data-z-index="1" transform="translate(158,243)"><text x="5" data-z-index="1" style="font-size:11px;font-weight:bold;color:white;fill:white;" y="16"><tspan x="5" y="16" class="highcharts-text-outline" fill="#000000" stroke="#000000" stroke-width="2px" stroke-linejoin="round">5.0%</tspan><tspan x="5" y="16">5.0%</tspan></text></g><g class="highcharts-label highcharts-data-label highcharts-data-label-color-3 " data-z-index="1" transform="translate(122,250)"><text x="5" data-z-index="1" style="font-size:11px;font-weight:bold;color:white;fill:white;" y="16"><tspan x="5" y="16" class="highcharts-text-outline" fill="#000000" stroke="#000000" stroke-width="2px" stroke-linejoin="round">7.4%</tspan><tspan x="5" y="16">7.4%</tspan></text></g><g class="highcharts-label highcharts-data-label highcharts-data-label-color-4 " data-z-index="1" transform="translate(79,239)"><text x="5" data-z-index="1" style="font-size:11px;font-weight:bold;color:white;fill:white;" y="16"><tspan x="5" y="16" class="highcharts-text-outline" fill="#000000" stroke="#000000" stroke-width="2px" stroke-linejoin="round">7.5%</tspan><tspan x="5" y="16">7.5%</tspan></text></g><g class="highcharts-label highcharts-data-label highcharts-data-label-color-5 " data-z-index="1" transform="translate(31,121)"><text x="5" data-z-index="1" style="font-size:11px;font-weight:bold;color:white;fill:white;" y="16"><tspan x="5" y="16" class="highcharts-text-outline" fill="#000000" stroke="#000000" stroke-width="2px" stroke-linejoin="round">38.6%</tspan><tspan x="5" y="16">38.6%</tspan></text></g></g></svg>