<svg version="1.1" class="highcharts-root" style="font-family:Arial;font-size:12;" xmlns="http://www.w3.org/2000/svg" width="300" height="400" viewBox="0 0 300 400"><desc>Created with Highcharts 6.1.2</desc><defs><clipPath id="highcharts-0rlzg3o-9"><rect x="0" y="0" width="280" height="314" fill="none"></rect></clipPath></defs><rect fill="transparent" class="highcharts-background" x="0" y="0" width="300" height="400" rx="0" ry="0"></rect><rect fill="none" class="highcharts-plot-background" x="10" y="71" width="280" height="314"></rect><rect fill="none" class="highcharts-plot-border" data-z-index="1" x="10" y="71" width="280" height="314"></rect><g class="highcharts-series-group" data-z-index="3"><g data-z-index="0.1" class="highcharts-series highcharts-series-0 highcharts-pie-series  highcharts-tracker" transform="translate(10,71) scale(1 1)"><path fill="#2f7ed8" d="M 143.9745408495381 32.0000025926734 A 125 125 0 0 1 245.15052262350403 83.55905928576351 L 144 157 A 0 0 0 0 0 144 157 Z" transform="translate(0,0)" stroke="#ffffff" stroke-width="1" stroke-linejoin="round" class="highcharts-point highcharts-color-0"></path><path fill="#0d233a" d="M 245.223912976721 83.6602465119959 A 125 125 0 0 1 268.99493753417175 155.8750151874385 L 144 157 A 0 0 0 0 0 144 157 Z" transform="translate(0,0)" stroke="#ffffff" stroke-width="1" stroke-linejoin="round" class="highcharts-point highcharts-color-1"></path><path fill="#8bbc21" d="M 268.9960000213333 156.00001066663253 A 125 125 0 0 1 247.65848241309965 226.85641719851594 L 144 157 A 0 0 0 0 0 144 157 Z" transform="translate(0,0)" stroke="#ffffff" stroke-width="1" stroke-linejoin="round" class="highcharts-point highcharts-color-2"></path><path fill="#910000" d="M 247.58857417830697 226.9600407354469 A 125 125 0 0 1 193.57341589737942 271.74962499400795 L 144 157 A 0 0 0 0 0 144 157 Z" transform="translate(0,0)" stroke="#ffffff" stroke-width="1" stroke-linejoin="round" class="highcharts-point highcharts-color-3"></path><path fill="#1aadce" d="M 193.4586415048045 271.79914102683534 A 125 125 0 1 1 143.82637750774106 32.00012057913743 L 144 157 A 0 0 0 1 0 144 157 Z" transform="translate(0,0)" stroke="#ffffff" stroke-width="1" stroke-linejoin="round" class="highcharts-point highcharts-color-4"></path></g><g data-z-index="0.1" class="highcharts-markers highcharts-series-0 highcharts-pie-series " transform="translate(10,71) scale(1 1)"></g></g><text x="150" text-anchor="middle" class="highcharts-title" data-z-index="4" style="color:#000;font-size:14;font-weight:normal;font-style:normal;fill:#000;" y="19"><tspan>State/UT-wise cases</tspan><tspan dy="15" x="150">recommendations of monetary relief</tspan><tspan dy="15" x="150">during 2024</tspan></text><text x="150" text-anchor="middle" class="highcharts-subtitle" data-z-index="4" style="color:#666666;fill:#666666;" y="70"></text><g data-z-index="6" class="highcharts-data-labels highcharts-series-0 highcharts-pie-series  highcharts-tracker" transform="translate(10,71) scale(1 1)" opacity="1" visibility="visible"><g class="highcharts-label highcharts-data-label highcharts-data-label-color-0 " data-z-index="1" transform="translate(167,62)"><text x="5" data-z-index="1" style="font-size:11px;font-weight:bold;color:white;fill:white;" y="16"><tspan x="5" y="16" class="highcharts-text-outline" fill="#000000" stroke="#000000" stroke-width="2px" stroke-linejoin="round" style="">15.0%</tspan><tspan x="5" y="16">15.0%</tspan></text></g><g class="highcharts-label highcharts-data-label highcharts-data-label-color-1 " data-z-index="1" transform="translate(217,117)"><text x="5" data-z-index="1" style="font-size:11px;font-weight:bold;color:white;fill:white;" y="16"><tspan x="5" y="16" class="highcharts-text-outline" fill="#000000" stroke="#000000" stroke-width="2px" stroke-linejoin="round" style="">9.8%</tspan><tspan x="5" y="16">9.8%</tspan></text></g><g class="highcharts-label highcharts-data-label highcharts-data-label-color-2 " data-z-index="1" transform="translate(217,174)"><text x="5" data-z-index="1" style="font-size:11px;font-weight:bold;color:white;fill:white;" y="16"><tspan x="5" y="16" class="highcharts-text-outline" fill="#000000" stroke="#000000" stroke-width="2px" stroke-linejoin="round">9.6%</tspan><tspan x="5" y="16">9.6%</tspan></text></g><g class="highcharts-label highcharts-data-label highcharts-data-label-color-3 " data-z-index="1" transform="translate(187,220)"><text x="5" data-z-index="1" style="font-size:11px;font-weight:bold;color:white;fill:white;" y="16"><tspan x="5" y="16" class="highcharts-text-outline" fill="#000000" stroke="#000000" stroke-width="2px" stroke-linejoin="round">9.1%</tspan><tspan x="5" y="16">9.1%</tspan></text></g><g class="highcharts-label highcharts-data-label highcharts-data-label-color-4 " data-z-index="1" transform="translate(30,166)"><text x="5" data-z-index="1" style="font-size:11px;font-weight:bold;color:white;fill:white;" y="16"><tspan x="5" y="16" class="highcharts-text-outline" fill="#000000" stroke="#000000" stroke-width="2px" stroke-linejoin="round">56.5%</tspan><tspan x="5" y="16">56.5%</tspan></text></g></g></svg>