<svg version="1.1" class="highcharts-root" style="font-family:Arial;font-size:12;" xmlns="http://www.w3.org/2000/svg" width="300" height="400" viewBox="0 0 300 400"><desc>Created with Highcharts 6.1.2</desc><defs><clipPath id="highcharts-0rlzg3o-5"><rect x="0" y="0" width="280" height="329" fill="none"></rect></clipPath></defs><rect fill="transparent" class="highcharts-background" x="0" y="0" width="300" height="400" rx="0" ry="0"></rect><rect fill="none" class="highcharts-plot-background" x="10" y="56" width="280" height="329"></rect><rect fill="none" class="highcharts-plot-border" data-z-index="1" x="10" y="56" width="280" height="329"></rect><g class="highcharts-series-group" data-z-index="3"><g data-z-index="0.1" class="highcharts-series highcharts-series-0 highcharts-pie-series  highcharts-tracker" transform="translate(10,56) scale(1 1)"><path fill="#df7000" d="M 139.97433717633442 38.50000261341478 A 126 126 0 0 1 229.21993730758587 253.4707973822335 L 140 164.5 A 0 0 0 0 0 140 164.5 Z" transform="translate(0,0)" stroke="#ffffff" stroke-width="1" stroke-linejoin="round" class="highcharts-point highcharts-color-0"></path><path fill="#026de3" d="M 229.13092191506718 253.5599728192761 A 126 126 0 0 1 85.1712358235225 277.945170099393 L 140 164.5 A 0 0 0 0 0 140 164.5 Z" transform="translate(0,0)" stroke="#ffffff" stroke-width="1" stroke-linejoin="round" class="highcharts-point highcharts-color-1"></path><path fill="#8bbc21" d="M 85.05781808671043 277.89028462177436 A 126 126 0 0 1 14.19465407740583 171.50106686844333 L 140 164.5 A 0 0 0 0 0 140 164.5 Z" transform="translate(0,0)" stroke="#ffffff" stroke-width="1" stroke-linejoin="round" class="highcharts-point highcharts-color-2"></path><path fill="#910000" d="M 14.187715914371935 171.37525804295518 A 126 126 0 0 1 20.412492576613346 124.81589652944845 L 140 164.5 A 0 0 0 0 0 140 164.5 Z" transform="translate(0,0)" stroke="#ffffff" stroke-width="1" stroke-linejoin="round" class="highcharts-point highcharts-color-3"></path><path fill="#1aadce" d="M 20.452236467218597 124.6963288840064 A 126 126 0 0 1 40.88016425874973 86.71016671423209 L 140 164.5 A 0 0 0 0 0 140 164.5 Z" transform="translate(0,0)" stroke="#ffffff" stroke-width="1" stroke-linejoin="round" class="highcharts-point highcharts-color-4"></path><path fill="#492970" d="M 40.95800363898425 86.61108578992422 A 126 126 0 0 1 62.01390034409039 65.53450974981969 L 140 164.5 A 0 0 0 0 0 140 164.5 Z" transform="translate(0,0)" stroke="#ffffff" stroke-width="1" stroke-linejoin="round" class="highcharts-point highcharts-color-5"></path><path fill="#f28f43" d="M 62.11290481089294 65.45657314590244 A 126 126 0 0 1 139.824988527803 38.50012154377052 L 140 164.5 A 0 0 0 0 0 140 164.5 Z" transform="translate(0,0)" stroke="#ffffff" stroke-width="1" stroke-linejoin="round" class="highcharts-point highcharts-color-6"></path></g><g data-z-index="0.1" class="highcharts-markers highcharts-series-0 highcharts-pie-series " transform="translate(10,56) scale(1 1)"></g></g><text x="150" text-anchor="middle" class="highcharts-title" data-z-index="4" style="color:#000;font-size:14;font-weight:normal;font-style:normal;fill:#000;" y="19"><tspan>Incident-wise number of cases</tspan><tspan dy="15" x="150">registered during 2024</tspan></text><text x="150" text-anchor="middle" class="highcharts-subtitle" data-z-index="4" style="color:#666666;fill:#666666;" y="55"></text><g data-z-index="6" class="highcharts-data-labels highcharts-series-0 highcharts-pie-series  highcharts-tracker" transform="translate(10,56) scale(1 1)" opacity="1" visibility="visible"><g class="highcharts-label highcharts-data-label highcharts-data-label-color-0 " data-z-index="1" transform="translate(208,118)"><text x="5" data-z-index="1" style="font-size:11px;font-weight:bold;color:white;fill:white;" y="16"><tspan x="5" y="16" class="highcharts-text-outline" fill="#000000" stroke="#000000" stroke-width="2px" stroke-linejoin="round" style="">37.5%</tspan><tspan x="5" y="16">37.5%</tspan></text></g><g class="highcharts-label highcharts-data-label highcharts-data-label-color-1 " data-z-index="1" transform="translate(135,249)"><text x="5" data-z-index="1" style="font-size:11px;font-weight:bold;color:white;fill:white;" y="16"><tspan x="5" y="16" class="highcharts-text-outline" fill="#000000" stroke="#000000" stroke-width="2px" stroke-linejoin="round">19.7%</tspan><tspan x="5" y="16">19.7%</tspan></text></g><g class="highcharts-label highcharts-data-label highcharts-data-label-color-2 " data-z-index="1" transform="translate(39,208)"><text x="5" data-z-index="1" style="font-size:11px;font-weight:bold;color:white;fill:white;" y="16"><tspan x="5" y="16" class="highcharts-text-outline" fill="#000000" stroke="#000000" stroke-width="2px" stroke-linejoin="round">17.0%</tspan><tspan x="5" y="16">17.0%</tspan></text></g><g class="highcharts-label highcharts-data-label highcharts-data-label-color-3 " data-z-index="1" transform="translate(27,142)"><text x="5" data-z-index="1" style="font-size:11px;font-weight:bold;color:white;fill:white;" y="16"><tspan x="5" y="16" class="highcharts-text-outline" fill="#000000" stroke="#000000" stroke-width="2px" stroke-linejoin="round" style="">6.0%</tspan><tspan x="5" y="16">6.0%</tspan></text></g><g class="highcharts-label highcharts-data-label highcharts-data-label-color-4 " data-z-index="1" transform="translate(38,109)"><text x="5" data-z-index="1" style="font-size:11px;font-weight:bold;color:white;fill:white;" y="16"><tspan x="5" y="16" class="highcharts-text-outline" fill="#000000" stroke="#000000" stroke-width="2px" stroke-linejoin="round">5.5%</tspan><tspan x="5" y="16">5.5%</tspan></text></g><g class="highcharts-label highcharts-data-label highcharts-data-label-color-5 " data-z-index="1" transform="translate(55,87)"><text x="5" data-z-index="1" style="font-size:11px;font-weight:bold;color:white;fill:white;" y="16"><tspan x="5" y="16" class="highcharts-text-outline" fill="#000000" stroke="#000000" stroke-width="2px" stroke-linejoin="round">3.8%</tspan><tspan x="5" y="16">3.8%</tspan></text></g><g class="highcharts-label highcharts-data-label highcharts-data-label-color-6 " data-z-index="1" transform="translate(88,64)"><text x="5" data-z-index="1" style="font-size:11px;font-weight:bold;color:white;fill:white;" y="16"><tspan x="5" y="16" class="highcharts-text-outline" fill="#000000" stroke="#000000" stroke-width="2px" stroke-linejoin="round">10.6%</tspan><tspan x="5" y="16">10.6%</tspan></text></g></g></svg>