<svg version="1.1" class="highcharts-root" style="font-family:Arial;font-size:12;" xmlns="http://www.w3.org/2000/svg" width="300" height="400" viewBox="0 0 300 400"><desc>Created with Highcharts 6.1.2</desc><defs><clipPath id="highcharts-0rlzg3o-7"><rect x="0" y="0" width="280" height="329" fill="none"></rect></clipPath></defs><rect fill="transparent" class="highcharts-background" x="0" y="0" width="300" height="400" rx="0" ry="0"></rect><rect fill="none" class="highcharts-plot-background" x="10" y="56" width="280" height="329"></rect><rect fill="none" class="highcharts-plot-border" data-z-index="1" x="10" y="56" width="280" height="329"></rect><g class="highcharts-series-group" data-z-index="3"><g data-z-index="0.1" class="highcharts-series highcharts-series-0 highcharts-pie-series  highcharts-tracker" transform="translate(10,56) scale(1 1)"><path fill="#2f7ed8" d="M 142.47525370575104 43.00000252007854 A 121.5 121.5 0 0 1 232.71386779799897 83.11383374967733 L 142.5 164.5 A 0 0 0 0 0 142.5 164.5 Z" transform="translate(0,0)" stroke="#ffffff" stroke-width="1" stroke-linejoin="round" class="highcharts-point highcharts-color-0"></path><path fill="#ff00ff" d="M 232.79520884375478 83.20408829551941 A 121.5 121.5 0 0 1 263.88240697351154 169.84427519096997 L 142.5 164.5 A 0 0 0 0 0 142.5 164.5 Z" transform="translate(0,0)" stroke="#ffffff" stroke-width="1" stroke-linejoin="round" class="highcharts-point highcharts-color-1"></path><path fill="#8bbc21" d="M 263.8770020080128 169.96565490557572 A 121.5 121.5 0 0 1 235.2715951048403 242.95814898213936 L 142.5 164.5 A 0 0 0 0 0 142.5 164.5 Z" transform="translate(0,0)" stroke="#ffffff" stroke-width="1" stroke-linejoin="round" class="highcharts-point highcharts-color-2"></path><path fill="#910000" d="M 235.19309058314082 243.05088133271104 A 121.5 121.5 0 0 1 181.84781609115768 279.452161218728 L 142.5 164.5 A 0 0 0 0 0 142.5 164.5 Z" transform="translate(0,0)" stroke="#ffffff" stroke-width="1" stroke-linejoin="round" class="highcharts-point highcharts-color-3"></path><path fill="#1aadce" d="M 181.73284427519124 279.49145155218537 A 121.5 121.5 0 0 1 117.38562178907125 283.37606153922843 L 142.5 164.5 A 0 0 0 0 0 142.5 164.5 Z" transform="translate(0,0)" stroke="#ffffff" stroke-width="1" stroke-linejoin="round" class="highcharts-point highcharts-color-4"></path><path fill="#492970" d="M 117.26675830453277 283.35088772717745 A 121.5 121.5 0 0 1 142.3312389375243 43.00011720292157 L 142.5 164.5 A 0 0 0 0 0 142.5 164.5 Z" transform="translate(0,0)" stroke="#ffffff" stroke-width="1" stroke-linejoin="round" class="highcharts-point highcharts-color-5"></path></g><g data-z-index="0.1" class="highcharts-markers highcharts-series-0 highcharts-pie-series " transform="translate(10,56) scale(1 1)"></g></g><text x="150" text-anchor="middle" class="highcharts-title" data-z-index="4" style="color:#000;font-size:14;font-weight:normal;font-style:normal;fill:#000;" y="19"><tspan>State/UT-wise cases registered Suo-</tspan><tspan dy="15" x="150">motu during 2024</tspan></text><text x="150" text-anchor="middle" class="highcharts-subtitle" data-z-index="4" style="color:#666666;fill:#666666;" y="55"></text><g data-z-index="6" class="highcharts-data-labels highcharts-series-0 highcharts-pie-series  highcharts-tracker" transform="translate(10,56) scale(1 1)" opacity="1" visibility="visible"><g class="highcharts-label highcharts-data-label highcharts-data-label-color-0 " data-z-index="1" transform="translate(159,71)"><text x="5" data-z-index="1" style="font-size:11px;font-weight:bold;color:white;fill:white;" y="16"><tspan x="5" y="16" class="highcharts-text-outline" fill="#000000" stroke="#000000" stroke-width="2px" stroke-linejoin="round" style="">13.3%</tspan><tspan x="5" y="16">13.3%</tspan></text></g><g class="highcharts-label highcharts-data-label highcharts-data-label-color-1 " data-z-index="1" transform="translate(208,124)"><text x="5" data-z-index="1" style="font-size:11px;font-weight:bold;color:white;fill:white;" y="16"><tspan x="5" y="16" class="highcharts-text-outline" fill="#000000" stroke="#000000" stroke-width="2px" stroke-linejoin="round">12.4%</tspan><tspan x="5" y="16">12.4%</tspan></text></g><g class="highcharts-label highcharts-data-label highcharts-data-label-color-2 " data-z-index="1" transform="translate(207,188)"><text x="5" data-z-index="1" style="font-size:11px;font-weight:bold;color:white;fill:white;" y="16"><tspan x="5" y="16" class="highcharts-text-outline" fill="#000000" stroke="#000000" stroke-width="2px" stroke-linejoin="round">10.5%</tspan><tspan x="5" y="16">10.5%</tspan></text></g><g class="highcharts-label highcharts-data-label highcharts-data-label-color-3 " data-z-index="1" transform="translate(177,230)"><text x="5" data-z-index="1" style="font-size:11px;font-weight:bold;color:white;fill:white;" y="16"><tspan x="5" y="16" class="highcharts-text-outline" fill="#000000" stroke="#000000" stroke-width="2px" stroke-linejoin="round" style="">8.6%</tspan><tspan x="5" y="16">8.6%</tspan></text></g><g class="highcharts-label highcharts-data-label highcharts-data-label-color-4 " data-z-index="1" transform="translate(130,246)"><text x="5" data-z-index="1" style="font-size:11px;font-weight:bold;color:white;fill:white;" y="16"><tspan x="5" y="16" class="highcharts-text-outline" fill="#000000" stroke="#000000" stroke-width="2px" stroke-linejoin="round">8.6%</tspan><tspan x="5" y="16">8.6%</tspan></text></g><g class="highcharts-label highcharts-data-label highcharts-data-label-color-5 " data-z-index="1" transform="translate(31,145)"><text x="5" data-z-index="1" style="font-size:11px;font-weight:bold;color:white;fill:white;" y="16"><tspan x="5" y="16" class="highcharts-text-outline" fill="#000000" stroke="#000000" stroke-width="2px" stroke-linejoin="round">46.7%</tspan><tspan x="5" y="16">46.7%</tspan></text></g></g></svg>